<svg width="12.000000" height="13.333374" viewBox="0 0 12 13.3334" fill="none" xmlns="http://www.w3.org/2000/svg" xmlns:xlink="http://www.w3.org/1999/xlink">
	<desc>
			Created with Pixso.
	</desc>
	<defs/>
	<path id="Vector" d="M10 9.33337C9.47461 9.33337 9 9.54004 8.64404 9.87134L3.93994 7.1333C3.97339 6.97998 4 6.82666 4 6.66663C4 6.50671 3.97339 6.35339 3.93994 6.19995L8.64001 3.45996C9 3.79333 9.47339 4 10 4C11.1067 4 12 3.10669 12 2C12 0.893311 11.1067 0 10 0C8.89331 0 8 0.893311 8 2C8 2.16003 8.02661 2.31335 8.06006 2.46667L3.35999 5.20667C3 4.87329 2.52661 4.66663 2 4.66663C0.893311 4.66663 0 5.56006 0 6.66663C0 7.77332 0.893311 8.66663 2 8.66663C2.52661 8.66663 3 8.45996 3.35999 8.12671L8.05872 10.8719C8.02112 11.0229 8.00146 11.1777 8 11.3334C8 11.7289 8.11731 12.1156 8.33704 12.4445C8.55688 12.7733 8.86914 13.0297 9.23462 13.181C9.6001 13.3325 10.0022 13.3721 10.3901 13.2949C10.7782 13.2178 11.1345 13.0272 11.4142 12.7476C11.694 12.4679 11.8844 12.1115 11.9615 11.7235C12.0387 11.3356 11.9991 10.9335 11.8478 10.568C11.6964 10.2025 11.4401 9.89014 11.1111 9.67041C10.7822 9.45068 10.3955 9.33337 10 9.33337Z" fill="#FFFFFF" fill-opacity="1.000000" fill-rule="nonzero"/>
</svg>
