<svg width="24" height="24" viewBox="0 0 24 24" fill="none" xmlns="http://www.w3.org/2000/svg">
<path d="M22.6091 18.425L17.5279 13.805C17.2877 13.5867 16.972 13.4703 16.6476 13.4803C16.3232 13.4903 16.0154 13.626 15.7891 13.8587L12.7979 16.935C12.0779 16.7975 10.6304 16.3462 9.14035 14.86C7.65035 13.3687 7.1991 11.9175 7.06535 11.2025L10.1391 8.20999C10.3721 7.9839 10.508 7.67602 10.5181 7.3515C10.5281 7.02698 10.4115 6.71129 10.1929 6.47124L5.5741 1.39124C5.35541 1.15044 5.05145 1.00437 4.72679 0.984068C4.40214 0.963762 4.08235 1.07082 3.83535 1.28249L1.12285 3.60874C0.906741 3.82564 0.777752 4.11431 0.760352 4.41999C0.741602 4.73249 0.384103 12.135 6.1241 17.8775C11.1316 22.8837 17.4041 23.25 19.1316 23.25C19.3841 23.25 19.5391 23.2425 19.5804 23.24C19.886 23.2229 20.1745 23.0933 20.3904 22.8762L22.7154 20.1625C22.9279 19.9163 23.0357 19.5968 23.0159 19.2721C22.996 18.9475 22.85 18.6435 22.6091 18.425Z" fill="black"/>
</svg>
