<svg width="28" height="28" viewBox="0 0 28 28" fill="none" xmlns="http://www.w3.org/2000/svg">
<path d="M25.2359 19.1926H8.95273L9.77031 17.5273L23.3547 17.5027C23.8141 17.5027 24.2078 17.1746 24.2898 16.7207L26.1711 6.19062C26.2203 5.91445 26.1465 5.63008 25.966 5.41406C25.8768 5.30775 25.7656 5.22211 25.64 5.16309C25.5144 5.10407 25.3774 5.07308 25.2387 5.07227L7.95742 5.01484L7.80977 4.32031C7.7168 3.87734 7.31758 3.55469 6.86367 3.55469H2.63906C2.38307 3.55469 2.13756 3.65638 1.95654 3.8374C1.77552 4.01841 1.67383 4.26393 1.67383 4.51992C1.67383 4.77592 1.77552 5.02143 1.95654 5.20245C2.13756 5.38346 2.38307 5.48516 2.63906 5.48516H6.08164L6.72695 8.55312L8.31562 16.2449L6.27031 19.5836C6.1641 19.727 6.10012 19.8972 6.08562 20.075C6.07113 20.2528 6.10669 20.4312 6.18828 20.5898C6.35234 20.9152 6.6832 21.1203 7.04961 21.1203H8.7668C8.40071 21.6065 8.20298 22.1988 8.20352 22.8074C8.20352 24.3551 9.46133 25.6129 11.009 25.6129C12.5566 25.6129 13.8145 24.3551 13.8145 22.8074C13.8145 22.1977 13.6121 21.6043 13.2512 21.1203H17.6562C17.2902 21.6065 17.0924 22.1988 17.093 22.8074C17.093 24.3551 18.3508 25.6129 19.8984 25.6129C21.4461 25.6129 22.7039 24.3551 22.7039 22.8074C22.7039 22.1977 22.5016 21.6043 22.1406 21.1203H25.2387C25.7691 21.1203 26.2039 20.6883 26.2039 20.1551C26.2023 19.8994 26.0996 19.6546 25.9183 19.4743C25.737 19.294 25.4917 19.1927 25.2359 19.1926ZM8.35938 6.91797L24.1039 6.96992L22.5617 15.6051L10.1941 15.627L8.35938 6.91797ZM11.009 23.6715C10.5332 23.6715 10.1449 23.2832 10.1449 22.8074C10.1449 22.3316 10.5332 21.9434 11.009 21.9434C11.4848 21.9434 11.873 22.3316 11.873 22.8074C11.873 23.0366 11.782 23.2564 11.62 23.4184C11.4579 23.5805 11.2381 23.6715 11.009 23.6715ZM19.8984 23.6715C19.4227 23.6715 19.0344 23.2832 19.0344 22.8074C19.0344 22.3316 19.4227 21.9434 19.8984 21.9434C20.3742 21.9434 20.7625 22.3316 20.7625 22.8074C20.7625 23.0366 20.6715 23.2564 20.5094 23.4184C20.3474 23.5805 20.1276 23.6715 19.8984 23.6715Z" fill="black"/>
</svg>
